# xmcd
#
# Track frame offsets:
#	150
#	11705
#	23880
#	39176
#	53455
#	68033
#	85815
#	104865
#	121129
#	137574
#	154353
#	178370
#	189604
#
# Disc length: 2716 seconds
#
# Revision: 1
# Processed by: cddbd v1.5.2PL0 Copyright (c) Steve Scherf et al.
# Submitted via: audiograbber 1.83.01
#
DISCID=ad0a9a0d
DTITLE=Back Alley Sally - Back Alley Sally
DYEAR=1995
DGENRE=Hard Rock
TTITLE0=Walking Down The Road
TTITLE1=Changing Me
TTITLE2=Woman For Me
TTITLE3=Candy Cane
TTITLE4=Things Are Gonna Change
TTITLE5=Number One
TTITLE6=Gone For Good
TTITLE7=Waste My Time
TTITLE8=Dreamer
TTITLE9=No Love
TTITLE10=Ain't The Same
TTITLE11=Don't Kill Myself
TTITLE12=Cocaine
EXTD=
EXTT0=
EXTT1=
EXTT2=
EXTT3=
EXTT4=
EXTT5=
EXTT6=
EXTT7=
EXTT8=
EXTT9=
EXTT10=
EXTT11=
EXTT12=
PLAYORDER=
